# xmcd
#
# Track frame offsets: 
#        150
#        15111
#        28066
#        44172
#        63326
#        83402
#        95120
#        113086
#        131529
#        153209
#        166593
#        184047
#        199614
#        213412
#        230595
#        253760
#        267349
#
# Disc length: 3694 seconds
#
# Revision: 0
# Processed by: cddbd v1.5.2PL0 Copyright (c) Steve Scherf et al.
# Submitted via: ExactAudioCopyFreeDBPlugin 1.0
#
DISCID=db0e6c11
DTITLE=Patricia Vonne - Viva Bandolera
DYEAR=2015
DGENRE=Tex-Mex-Country-Rock
TTITLE0=Traeme Paz
TTITLE1=Dulce Refugio
TTITLE2=El Marinero y La Sirena
TTITLE3=Viva Bandolera
TTITLE4=Que` Maravilla
TTITLE5=Guitarras y Castanuelas
TTITLE6=La Huerta de San Vicente
TTITLE7=Torera
TTITLE8=La Gitana de Triana
TTITLE9=Mujeres Desaparecidas
TTITLE10=Fuente Vaqueros
TTITLE11=Fiest Sangria
TTITLE12=Tequileros
TTITLE13=La Lomita de Santa Cruz
TTITLE14=Soledad
TTITLE15=Severina
TTITLE16=Mexicali de Chispa
EXTD=
EXTT0=
EXTT1=
EXTT2=
EXTT3=
EXTT4=
EXTT5=
EXTT6=
EXTT7=
EXTT8=
EXTT9=
EXTT10=
EXTT11=
EXTT12=
EXTT13=
EXTT14=
EXTT15=
EXTT16=
PLAYORDER=
